<svg id="FLOWER" xmlns="http://www.w3.org/2000/svg" viewBox="0 0 140 84"><defs><style>.cls-1{fill:#72BF44;}</style></defs><title>aa-icon-flower</title><path class="cls-1" d="M136.52,54.95a157.84,157.84,0,0,0-20.33-12.83A154.73,154.73,0,0,0,122,16.89a3.78,3.78,0,0,0-4.24-4.22c-.8.11-18.39,2.49-33.11,8.7A156.4,156.4,0,0,0,73,3.39a3.93,3.93,0,0,0-6,0,156.4,156.4,0,0,0-11.7,18C40.59,15.16,23,12.78,22.2,12.67A3.8,3.8,0,0,0,19,13.74,3.75,3.75,0,0,0,18,16.89a154.73,154.73,0,0,0,5.85,25.23A157.84,157.84,0,0,0,3.48,54.95a3.74,3.74,0,0,0,0,6C4.6,61.77,31.35,82,50.15,82c9.63,0,16.16-2.59,19.85-7.87C73.69,79.41,80.22,82,89.85,82c18.8,0,45.55-20.23,46.68-21.1a3.74,3.74,0,0,0,0-6Zm-22.8-34c-1.73,9.47-6.32,29.7-15,38.35-3.19,3.18-5.84,4.91-8.09,5.76,2.25-3.48,3.61-8.38,3.61-15.26,0-6.73-2.65-14.49-6.07-21.72A133.67,133.67,0,0,1,113.72,21ZM70,12.11C75.5,20,86.65,37.57,86.65,49.8c0,13.86-5.73,15.77-14.65,16-.13,0-.25,0-.38,0l-.76,0-.86,0-.86,0-.76,0a3.47,3.47,0,0,0-.78,0c-8.69-.25-14.26-2.3-14.26-16C53.35,37.57,64.5,20,70,12.11Zm-18.14,16c-3.42,7.23-6.07,15-6.07,21.72,0,6.89,1.36,11.78,3.61,15.26-2.25-.85-4.9-2.58-8.09-5.75C32.62,50.66,28,30.43,26.28,21A133.62,133.62,0,0,1,51.86,28.08ZM12.25,57.93a155.15,155.15,0,0,1,14.21-8.7c2.5,6,5.63,11.53,9.51,15.4,5.8,5.77,11.36,8.63,16.82,8.63A16.51,16.51,0,0,0,59,72c.6.18,1.21.33,1.82.47-2.19,1.2-5.49,2-10.67,2C37.86,74.49,20.21,63.4,12.25,57.93Zm77.6,16.56c-5.18,0-8.49-.83-10.67-2,.62-.14,1.23-.29,1.82-.47a16.51,16.51,0,0,0,6.22,1.25c5.47,0,11-2.86,16.82-8.63,3.88-3.86,7-9.42,9.51-15.4a155.15,155.15,0,0,1,14.21,8.7C119.8,63.4,102.16,74.49,89.85,74.49Z"/></svg>
