<svg id="MISSION" xmlns="http://www.w3.org/2000/svg" xmlns:xlink="http://www.w3.org/1999/xlink" viewBox="0 0 84 84"><defs><style>.cls-1{fill:#72BF44;}.cls-2{clip-path:url(#clip-path);}.cls-3{clip-path:url(#clip-path-2);}</style><clipPath id="clip-path"><path class="cls-1" d="M77,14.5,69.5,7l-4,4,7.5,7.5ZM69.5,22,62,14.5l-3.75,3.75,7.5,7.5Zm-6.25,6.25-7.5-7.5-20,20,7.5,7.5ZM39.5,52l1.25-1.25-7.5-7.5L32,44.5l-2.5,10Zm41-34L42.05,56.52,22.63,61.38l4.86-19.43L66,3.46a5,5,0,0,1,7.07,0l7.5,7.5A5,5,0,0,1,80.53,18ZM62,82H12A10,10,0,0,1,2,72V22A10,10,0,0,1,12,12H37a2.5,2.5,0,0,1,0,5H12a5,5,0,0,0-5,5V72a5,5,0,0,0,5,5H62a5,5,0,0,0,5-5V47a2.5,2.5,0,0,1,5,0V72A10,10,0,0,1,62,82Z"/></clipPath><clipPath id="clip-path-2"><rect class="cls-1" x="-333" y="-4333" width="2666.67" height="6316.67"/></clipPath></defs><title>Artboard 1</title><path class="cls-1" d="M77,14.5,69.5,7l-4,4,7.5,7.5ZM69.5,22,62,14.5l-3.75,3.75,7.5,7.5Zm-6.25,6.25-7.5-7.5-20,20,7.5,7.5ZM39.5,52l1.25-1.25-7.5-7.5L32,44.5l-2.5,10Zm41-34L42.05,56.52,22.63,61.38l4.86-19.43L66,3.46a5,5,0,0,1,7.07,0l7.5,7.5A5,5,0,0,1,80.53,18ZM62,82H12A10,10,0,0,1,2,72V22A10,10,0,0,1,12,12H37a2.5,2.5,0,0,1,0,5H12a5,5,0,0,0-5,5V72a5,5,0,0,0,5,5H62a5,5,0,0,0,5-5V47a2.5,2.5,0,0,1,5,0V72A10,10,0,0,1,62,82Z"/><g class="cls-2"><rect class="cls-1" x="-333" y="-4333" width="2666.67" height="6316.67"/><g class="cls-3"><rect class="cls-1" x="-6.33" y="-6.33" width="96.67" height="96.67"/></g></g></svg>
