<svg id="MISSION" xmlns="http://www.w3.org/2000/svg" viewBox="0 0 89 84"><defs><style>.cls-1{fill:#72BF44;}</style></defs><title>Artboard 1</title><path class="cls-1" d="M74,7.33H63.33V4.67a2.67,2.67,0,0,0-5.33,0V7.33H31.33V4.67a2.67,2.67,0,0,0-5.33,0V7.33H15.33A13.35,13.35,0,0,0,2,20.67v48A13.35,13.35,0,0,0,15.33,82H74A13.35,13.35,0,0,0,87.33,68.67v-48A13.35,13.35,0,0,0,74,7.33ZM15.33,12.67H26v2.67a2.67,2.67,0,1,0,5.33,0V12.67H58v2.67a2.67,2.67,0,1,0,5.33,0V12.67H74a8,8,0,0,1,8,8v8H7.33v-8A8,8,0,0,1,15.33,12.67ZM74,76.67H15.33a8,8,0,0,1-8-8V34H82V68.67A8,8,0,0,1,74,76.67Z"/><path class="cls-1" d="M16.88,59.55a5.49,5.49,0,0,0-1.55,3.79,5.28,5.28,0,0,0,5.33,5.33,5.38,5.38,0,0,0,3.79-1.55,5.41,5.41,0,0,0,0-7.57A5.58,5.58,0,0,0,16.88,59.55Z"/><path class="cls-1" d="M16.88,43.55a5.6,5.6,0,0,0-1.55,3.79,5.51,5.51,0,0,0,1.55,3.79,5.41,5.41,0,0,0,7.57,0,5.41,5.41,0,0,0,0-7.57A5.58,5.58,0,0,0,16.88,43.55Z"/><path class="cls-1" d="M32.88,59.55a5.35,5.35,0,0,0,7.57,7.57,5.35,5.35,0,0,0-7.57-7.57Z"/><path class="cls-1" d="M32.88,43.55a5.35,5.35,0,0,0,7.57,7.57A5.62,5.62,0,0,0,42,47.33a5.37,5.37,0,0,0-1.55-3.79A5.58,5.58,0,0,0,32.88,43.55Z"/><path class="cls-1" d="M48.88,59.55a5.35,5.35,0,0,0,7.57,7.57A5.62,5.62,0,0,0,58,63.33a5.5,5.5,0,0,0-1.55-3.79A5.58,5.58,0,0,0,48.88,59.55Z"/><path class="cls-1" d="M48.88,43.55a5.35,5.35,0,0,0,7.57,7.57A5.52,5.52,0,0,0,58,47.33a5.33,5.33,0,0,0-9.12-3.79Z"/><path class="cls-1" d="M64.88,59.55a5.49,5.49,0,0,0-1.55,3.79,5.28,5.28,0,0,0,5.33,5.33,5.38,5.38,0,0,0,3.79-1.55,5.35,5.35,0,0,0-7.57-7.57Z"/><path class="cls-1" d="M64.88,43.55a5.35,5.35,0,0,0,7.57,7.57A5.52,5.52,0,0,0,74,47.33a5.33,5.33,0,0,0-9.12-3.79Z"/></svg>
