<svg xmlns="http://www.w3.org/2000/svg" viewBox="0 0 780 256"><defs><style>.cls-1{fill:#e82e68;}.cls-2{fill:#666;}</style></defs><title>Artboard 1</title><path class="cls-1" d="M395.58 192.28c-5.48-4.45-19.7-14.2-24.72-19s-9-13.57-17.07-16.92-15.67 2.64-15.93 4.64c11-8.21 24.73 2.52 21.85 8.89-1.77 3.92-8 3.07-10.72.88s-11.68-8.16-19.43-1.55c7.4-.26 9.94 3.3 9.94 3.3s-10.06-.15-16 5.15-9.92 9.84-20.57 9.65c-6.4-.12-17.54-7.45-17.54-7.45 11 11 30.69 14.59 44.81 11.34s24.65-16.63 34.12-15.15 21.88 10.38 31.68 17.78l21.87 22.31s-9.79-13.72-22.29-23.87zM314.85 166.2c14.27-12.32 9.3-35.13 14-30.52 5.85 5.76-4 26.59 2.55 24.77 13.2-3.65 13.63-34.78 12.1-48.64-2.2-19.84-13-73-14-71.79-6.77 7.8.31 21.63 6.59 49.64 1.85 8.3 5.31 27.75 5 28.85s-3.18-17.32-5.73-28.63c-3.51-15.62-7.43-30.77-8.46-29.49-5.14 6.38-.34 20 5.51 39.68 1.81 6.07 5.75 19 5.45 19.9s-4.27-13.7-6-19.47c-4.68-15.78-7.37-25.48-9.07-23.33-5.36 6.82.53 18 6.19 33.68 1.31 3.64 4.08 10.84 3.76 11.65s-2.82-7-4.49-11.45c-2.87-7.63-5.93-14.89-7.65-10.38-2.71 7.1-2.72 10-1.08 18.1 6.74 33.24-.72 42.16-5.9 47-8.09 7.58-18.51 5.64-18.51 5.64s9.89 3.25 19.74-5.21z"/><circle class="cls-1" cx="353.05" cy="166.38" r="3.21" transform="translate(-34.7 210.86) rotate(-31.78)"/><path class="cls-1" d="M303 174.29c-10.72.91-11.72-2.82-18.33-7.17-6.11-4-9.73-2.37-9.73-2.37s4.62 2 5.85 5.56c0 0-4.18-2.62-11.71-2.75-9.06-.16-18.15 2.53-22.48 5.57a29.77 29.77 0 0 1 15.58-1.72c9 1.33 11.77 5.39 20.38 6.31a39.5 39.5 0 0 0 20.44-3.43z"/><path class="cls-2" d="M444.43 145.75c0 .83-.36 1.24-1.22 1.24a7.6 7.6 0 0 1-1.55-.14l-10.9-.58-10.84.58a5.36 5.36 0 0 1-1.27.14c-1.14 0-1.74-.5-1.8-1.52s.68-1.68 2.22-1.68c5-.1 7.49-.94 7.4-2.55 0-.1-.09-.48-.24-1.14l-.9-3.84-.55-2q-1-4.5-4.8-19.89h-18.28q-3.91 23.19-3.7 26.63.1 2 1.15 2.46a36.14 36.14 0 0 0 4.31.58c1.66.1 2.51.58 2.56 1.45s-.67 1.45-2.15 1.45a85.49 85.49 0 0 1-9.19-.58 23.92 23.92 0 0 0-2.66-.15 7.28 7.28 0 0 0-2.63.49 3.44 3.44 0 0 1-1.1.24c-.8 0-1.22-.43-1.27-1.31s.83-1.36 2.62-1.46a5.42 5.42 0 0 0 3.82-1.38q1.13-1.24 1.63-4.73 8.2-53.56 13.41-86a24.37 24.37 0 0 1 .6-3.85l.23-2.65q.17-1.59.6-1.59c.17 0 .33.29.47.87q1.41 5.66 6.29 23.64 3.81 14.07 19 70.64.86 3.29 2 4.17c.75.6 2.23.95 4.47 1q2.2.22 2.27 1.46zm-25-34.73l-5.75-21.62-5.16-20.11q-2.78 16.05-6.52 41.71zM508.63 47.45c0 1-.72 1.4-2.14 1.31h-3.42c-.91 0-1.45.27-1.62.8a24.53 24.53 0 0 0-.26 4.85v83.43q0 7.68-.09 9c-.06.87-.22 1.3-.51 1.3s-.74-.53-1.19-1.6l-10.94-27.15q-9.51-23.75-23.13-59.3v81.22a2.45 2.45 0 0 0 1.3 2.4 21.15 21.15 0 0 0 5.8.65c.75 0 1.12.39 1.12 1.16q0 1.45-2.22 1.45c-.51 0-2.14-.14-4.88-.43a20.32 20.32 0 0 0-4.15.14 29.47 29.47 0 0 1-4.84.29h-.85c-1.31 0-2-.43-2-1.31s.57-1.3 1.72-1.3q5-.14 5.86-1.09t.81-6.18v-71.63q0-12.06-2.91-15.11-1.37-1.45-4.88-1.45-2.22 0-2.22-1.53c0-.91.43-1.37 1.28-1.37a42 42 0 0 1 4.36.29c1.77.2 2.71.29 2.83.29s1 0 2.39-.14a33.63 33.63 0 0 0 5.48-.44l29.53 74.7v-64.55c0-3 0-4.81-.09-5.44a2.06 2.06 0 0 0-.69-1.45c-.4-.34-1.77-.51-4.1-.51q-3.09 0-3.08-1.31c0-1 .68-1.45 2.05-1.45h13.78c1.27.01 1.9.5 1.9 1.46zM575.11 115.8c0 .78-.26 1.17-.77 1.17h-2q-3.93-.29-4.45 2.31-.34 1.74-.34 12.56v4.62q-4.37 6.36-8.43 9a17.7 17.7 0 0 1-9.71 2.6q-13.52 0-21.48-13.71t-8-37.2q0-23.79 7.78-38.44t20.62-14.71q5.56 0 12.15 5.22a5.76 5.76 0 0 0 3.25 1.59q1.63 0 2.14-3.48c.29-1.35.63-2 1-2s.68.39.68 1.16c0 .29-.05 1.31-.15 3q-.4 8.29-.4 11.92v9.43c.05 3.38.09 4.88.09 4.5q-.18 3.48-1.11 3.48c-.52 0-.8-.68-.86-2q-.42-14.13-4.79-22.22t-11.47-8.09q-8.9 0-14.08 13.53t-5.2 36.76q0 22.4 5.26 35.57t14.25 13.16q6.84 0 9.41-6.64 1.28-3.32 1.28-12 0-7.22-.81-8.52t-5.6-1.16a3.41 3.41 0 0 1-1.54-.21 1 1 0 0 1-.35-.94q0-1.59 1.89-1.59h1.54q1.28.14 9.07 0h9.41c1.15.03 1.72.46 1.72 1.33zM629.87 122q0 .58-.17 7.11t-.17 12.48v4.79q-8.39-.87-33.2-.87h-10.7c-1.08 0-1.63-.38-1.63-1.16 0-.52.18-.82.52-.91.17 0 1.25-.13 3.25-.39q2.23-.29 2.7-1.6t.47-6.84v-81.74c0-2.81-.25-4.49-.73-5s-2-.8-4.66-.8c-.91 0-1.37-.41-1.37-1.23s.63-1.23 1.88-1.23h36.29a17.94 17.94 0 0 0 4.71-.58q.17 6.24.77 17.26l.34 6.24a17.61 17.61 0 0 1 .09 1.88c0 1-.26 1.45-.77 1.45s-1.08-1.21-1.37-3.65q-1.64-13.21-5.32-16.67-2.74-2.62-14.38-2.63h-7v42.65h2.05q9.58 0 11.68-2.47t2.85-14.36c.12-2 .43-3 .94-3s.95.87.95 2.61-.06 4.31-.17 7.69-.17 5.95-.17 7.69q0 15.52.27 21.32c0 1 .07 1.79.07 2.47 0 1.26-.32 1.89-.94 1.89-.4 0-.67-.41-.81-1.23s-.38-3.5-.73-8q-.68-8.56-4.17-10.59-1.53-.87-8-.87h-3.83v48.49q18.82 0 22.08-1.29 5.65-2.15 6.42-18.34.16-3.57 1.09-3.57t.87 3zM690.1 133.35q0 3.77-.26 12.48h-.94a23.89 23.89 0 0 1-2.47-.29 30.1 30.1 0 0 0-4.45-.29l-35.53-.43c-1 0-1.45-.43-1.45-1.3 0-.68.77-1.11 2.31-1.31q3.25-.29 3.89-1.23c.43-.63.64-2.44.64-5.44v-81.54q0-5.37-.64-6.24t-4.58-.87a1.42 1.42 0 0 1-1.62-1.58c0-.87.35-1.31 1-1.31h.77a90.66 90.66 0 0 0 11.21.44q.77 0 3-.22t3.68-.22h.94c1 0 1.54.49 1.54 1.45 0 .58-.15.94-.47 1.09a12.38 12.38 0 0 1-3 .36c-1.65.1-2.64.56-2.95 1.38s-.47 3.36-.47 7.62v85.58q2.31.14 6.42.14 10 0 14.12-1.74a9.68 9.68 0 0 0 5.56-6.53 51.4 51.4 0 0 0 1.72-12.91c.05-1.26.38-1.89 1-1.89s1 .72 1 2.17v12.62zM740.95 118.56q0 12.47-5.61 21.25t-13.48 8.78q-4.62 0-11-4.79a5.17 5.17 0 0 0-2.56-1.3q-1 0-1.29 4c-.05 1.38-.43 2.08-1.11 2.08s-.85-.58-.85-1.74a12.73 12.73 0 0 1 .09-1.74q.68-8.85.68-16.39 0-1.46-.17-8.13c-.06-.58-.09-1.35-.09-2.32q0-2.18 1-2.17.86 0 1.2 3.52 2.23 26.07 14.47 26.08 5.22 0 8.08-5t2.87-14.14a31.49 31.49 0 0 0-2.78-13.85q-2.78-5.73-9.54-11.39-8.13-6.82-11.29-13.2t-3.17-15.81q0-12 4.58-19.87t11.6-7.83q2.91 0 8 3.34a5.9 5.9 0 0 0 2.66 1.16 1.26 1.26 0 0 0 1.24-.58 11.57 11.57 0 0 0 .56-3c.12-1 .43-1.45.94-1.45s.86.58.86 1.74a13.56 13.56 0 0 1-.09 1.74q-.26 3.48-.26 8.41a109.82 109.82 0 0 0 .43 11l.09 2.32c.05 1.07-.2 1.59-.77 1.59s-1.06-1.11-1.29-3.33a34.25 34.25 0 0 0-4.45-14.29q-3.51-5.73-7.87-5.73t-6.81 4.64q-2.52 4.64-2.52 12.62 0 9.28 3.68 14.94 2.06 3.19 8.9 9 8 6.82 11.56 13.85a35.43 35.43 0 0 1 3.51 15.99zM97.42 145.75q0 1.23-1.28 1.23a7.5 7.5 0 0 1-1.54-.14l-10.87-.58-10.87.58a5.48 5.48 0 0 1-1.28.14c-1.14 0-1.71-.5-1.71-1.52s.77-1.67 2.31-1.67q7.53-.14 7.53-2.56c0-.09-.06-.47-.18-1.13l-.7-3.84-.44-2q-.77-4.5-3.76-19.89h-18.29q-5.13 23.19-5.13 26.63c0 1.36.34 2.17 1 2.47a34.75 34.75 0 0 0 4.28.58c1.65.1 2.48.58 2.48 1.45s-.71 1.5-2.2 1.5a84.67 84.67 0 0 1-9.16-.58 23.72 23.72 0 0 0-2.65-.14 7.49 7.49 0 0 0-2.65.48 3.54 3.54 0 0 1-1.11.24c-.8 0-1.2-.43-1.2-1.31s.9-1.36 2.7-1.45a5.7 5.7 0 0 0 3.89-1.38q1.2-1.23 1.88-4.73 11-53.56 17.92-86a25.25 25.25 0 0 1 .8-3.85l.37-2.65c.17-1.06.4-1.6.68-1.6s.31.29.43.87q1.11 5.66 5 23.64 3.13 14.05 15.33 70.61c.46 2.19 1 3.58 1.76 4.18s2.18.95 4.41 1q2.25.18 2.25 1.42zm-23.18-34.75l-4.62-21.61-4.11-20.1q-3.61 16-8.68 41.72zM148.91 47.16c0 .78-.54 1.22-1.63 1.31q-3.77.15-5 1.89t-2.65 8.14l-2.96 13.5q-10.53 49-14.81 75.21c-.17 1.16-.46 1.74-.85 1.74s-1.4-3.63-2.82-10.88q-3.85-19.87-6-29.88-2.29-11-6.79-33l-4.17-19.54a15.37 15.37 0 0 0-1.88-5.44 4.35 4.35 0 0 0-3.42-1.52 26 26 0 0 1-3.38-.29q-.55-.08-.55-1.1 0-1.3 1.71-1.3h.77q1.54 0 5.35.22t5.43.22q.43 0 3.3-.22t8.17-.22h1.2q1.54 0 1.54 1.32t-3.08 1.58l-5.22.3a1.76 1.76 0 0 0-1.8 2 8.29 8.29 0 0 0 .17 1.21l.66 3.93q.17 1.16 8.37 40.87 1.37 6.84 5.22 26 14.09-67.77 14.09-71.21t-4.2-3.05h-2.68q-1 0-1-1.29 0-1.66 2.56-1.66h2.91a22.26 22.26 0 0 0 3.51.44h2.74l5.65-.44c1.02 0 1.54.39 1.54 1.16zM199.42 145.75q0 1.23-1.28 1.23a7.5 7.5 0 0 1-1.54-.14l-10.87-.58-10.87.58a5.48 5.48 0 0 1-1.28.14c-1.14 0-1.71-.5-1.71-1.52s.77-1.67 2.31-1.67q7.53-.14 7.53-2.56c0-.09-.06-.47-.18-1.13l-.7-3.84-.44-2q-.77-4.5-3.76-19.89h-18.29q-5.13 23.21-5.13 26.69c0 1.36.34 2.17 1 2.47a34.75 34.75 0 0 0 4.28.58c1.65.1 2.48.58 2.48 1.45s-.74 1.45-2.23 1.45a84.67 84.67 0 0 1-9.16-.58 23.72 23.72 0 0 0-2.65-.14 7.49 7.49 0 0 0-2.65.48 3.54 3.54 0 0 1-1.11.24c-.8 0-1.2-.43-1.2-1.31s.9-1.36 2.7-1.45a5.7 5.7 0 0 0 3.89-1.38q1.2-1.23 1.88-4.73 11-53.56 17.92-86a25.25 25.25 0 0 1 .8-3.85l.37-2.65c.17-1.06.4-1.6.68-1.6s.31.29.43.87q1.11 5.66 5 23.64 3.16 14.04 15.36 70.6c.46 2.19 1 3.58 1.76 4.18s2.18.95 4.41 1q2.25.18 2.25 1.42zm-23.18-34.75l-4.62-21.62-4.11-20.1q-3.61 16-8.68 41.72zM215.75 57.63q0 10.59-5 15.38-3.42 3.34-5.73 3.34c-.63 0-.94-.38-.94-1.16a1.49 1.49 0 0 1 1-1.45 12.2 12.2 0 0 0 5.48-4.5q1.54-2.61 1.54-7.54a17.87 17.87 0 0 0-1.1-6.7q0 5-3.64 5a3.61 3.61 0 0 1-3.12-2.1 10 10 0 0 1-1.24-5.2 11.4 11.4 0 0 1 1.58-6.16 4.57 4.57 0 0 1 3.9-2.54q3.17 0 5.22 3.84a20.69 20.69 0 0 1 2.05 9.79zM268.94 118.56q0 12.47-5.6 21.25t-13.48 8.78q-4.62 0-11-4.79a5.15 5.15 0 0 0-2.57-1.3q-1 0-1.28 4c-.06 1.38-.43 2.08-1.11 2.08s-.85-.58-.85-1.74a12.73 12.73 0 0 1 .09-1.74q.69-8.85.68-16.39 0-1.45-.17-8.13-.08-.87-.09-2.32 0-2.18 1-2.17.86 0 1.2 3.52 2.22 26.07 14.46 26.08 5.22 0 8.09-5t2.87-14.14a31.52 31.52 0 0 0-2.78-13.85q-2.78-5.73-9.54-11.39-8.13-6.82-11.29-13.2t-3.17-15.81q0-12 4.58-19.87t11.6-7.83q2.91 0 8 3.34a5.87 5.87 0 0 0 2.65 1.16 1.26 1.26 0 0 0 1.24-.58 11.45 11.45 0 0 0 .56-3c.11-1 .43-1.45.94-1.45s.85.58.85 1.74a13.08 13.08 0 0 1-.09 1.74q-.26 3.48-.26 8.41 0 7 .43 11l.09 2.32c.06 1.07-.2 1.59-.77 1.59s-1.06-1.11-1.28-3.33a34.33 34.33 0 0 0-4.45-14.29q-3.51-5.73-7.88-5.73t-6.8 4.64q-2.52 4.64-2.52 12.62 0 9.28 3.68 14.94 2.05 3.19 8.9 9 8 6.82 11.55 13.85a35.46 35.46 0 0 1 3.52 15.99z"/></svg>